<?xml version="1.0" standalone="no"?><!DOCTYPE svg PUBLIC "-//W3C//DTD SVG 1.1//EN" "http://www.w3.org/Graphics/SVG/1.1/DTD/svg11.dtd"><svg t="1694932823547" class="icon" viewBox="0 0 1024 1024" version="1.1" xmlns="http://www.w3.org/2000/svg" p-id="7418" xmlns:xlink="http://www.w3.org/1999/xlink" width="144" height="144"><path d="M299.862634 1023.999488a300.79985 300.79985 0 0 1-211.711894-513.535743L535.894516 61.951969a210.943895 210.943895 0 1 1 298.495851 298.239851L385.622591 808.959596a121.343939 121.343939 0 0 1-171.775914-171.775915L682.582443 168.191916a31.999984 31.999984 0 1 1 45.311977 45.311977L258.902655 682.239659a58.367971 58.367971 0 0 0 0 81.663959 59.13597 59.13597 0 0 0 81.663959 0l448.767775-448.767776a147.199926 147.199926 0 0 0-208.383895-208.127896L133.462717 555.519722a237.055881 237.055881 0 0 0 0 335.103833 232.191884 232.191884 0 0 0 166.399917 69.375965 235.007882 235.007882 0 0 0 167.423916-69.375965l502.271749-502.015749A31.999984 31.999984 0 1 1 1014.614277 435.199782L512.086528 935.935532A298.495851 298.495851 0 0 1 299.862634 1023.999488z" p-id="7419" fill="#e16531"></path></svg>